# xmcd
#
# Track frame offsets: 
#        150
#        11713
#        23635
#        36782
#        47731
#        59684
#        71092
#        83588
#        94476
#        105933
#        117693
#        130089
#        142430
#        153341
#        166576
#        177611
#        188786
#        199896
#
# Disc length: 2804 seconds
#
# Revision: 0
# Processed by: cddbd v1.5.2PL0 Copyright (c) Steve Scherf et al.
# Submitted via: ExactAudioCopy v1.0b3
#
DISCID=020af212
DTITLE=Hank Williams - CD3 1949-1951
DYEAR=1900
DGENRE=Country
TTITLE0=My Bucket´s Got A Hole In It
TTITLE1=Why Should We Try Anymore
TTITLE2=A House Without Love
TTITLE3=Why Don´t You Love Me
TTITLE4=Long Gone Lonesome Blues
TTITLE5=My Son Calls Another Man Daddy
TTITLE6=They´ll Never Take Her Love From Me
TTITLE7=Moanin´ The Blues
TTITLE8=Nobody´s Lonesome For Me
TTITLE9=Dear John
TTITLE10=Cold, Cold Heart
TTITLE11=Howlin´ At The Moon
TTITLE12=I Can´t Help It (If I´m Still In Love With You)
TTITLE13=Hey, Good Lookin´
TTITLE14=My Heart Would Know
TTITLE15=Crazy Heart
TTITLE16=(I Heard That) Lonesome Whistle
TTITLE17=Thank God
EXTD=
EXTT0=
EXTT1=
EXTT2=
EXTT3=
EXTT4=
EXTT5=
EXTT6=
EXTT7=
EXTT8=
EXTT9=
EXTT10=
EXTT11=
EXTT12=
EXTT13=
EXTT14=
EXTT15=
EXTT16=
EXTT17=
PLAYORDER=
